<?xml version="1.0" encoding="UTF-8"?><svg id="Warstwa_2" xmlns="http://www.w3.org/2000/svg" viewBox="0 0 17.92 17.92"><defs><style>.cls-1{fill:#4f4e4e;fill-rule:evenodd;}</style></defs><g id="Warstwa_1-2"><path class="cls-1" d="M8.05,3.81c.52,.58,.36,1.24-.11,1.87-.11,.15-.24,.29-.39,.46-.07,.08-.13,.14-.25,.26-.27,.27-.5,.5-.69,.69-.09,.09,.52,1.32,1.72,2.51,1.19,1.19,2.42,1.81,2.51,1.72l.69-.69c.38-.38,.58-.56,.85-.74,.57-.38,1.2-.48,1.72,0,1.72,1.23,2.69,1.98,3.17,2.48,.93,.97,.81,2.45,0,3.3-.28,.29-.63,.65-1.05,1.05-2.52,2.52-7.84,.99-11.91-3.09C.24,9.52-1.29,4.21,1.22,1.69c.45-.46,.6-.61,1.04-1.04,.82-.81,2.37-.93,3.32,0,.5,.49,1.29,1.51,2.47,3.16Zm4.75,8.07l-.69,.69c-1.17,1.17-3.15,.17-5.04-1.72-1.89-1.89-2.88-3.88-1.72-5.05,.19-.19,.41-.41,.69-.69,.11-.11,.16-.16,.22-.22,.08-.09,.15-.16,.2-.23-1.04-1.45-1.75-2.36-2.14-2.74-.2-.2-.64-.16-.8,0-.43,.43-.58,.57-1.03,1.03-1.62,1.62-.38,5.91,3.09,9.38,3.47,3.47,7.76,4.71,9.39,3.08,.41-.4,.74-.73,1-1,.19-.2,.22-.6,0-.82-.36-.37-1.23-1.05-2.73-2.13-.11,.09-.24,.22-.45,.42Z"/></g></svg>