<?xml version="1.0" encoding="UTF-8"?><svg id="Warstwa_2" xmlns="http://www.w3.org/2000/svg" viewBox="0 0 48.01 45.2"><defs><style>.cls-1{fill:#dd9a36;}</style></defs><g id="Warstwa_1-2"><path class="cls-1" d="m13.77,0h.16c1.63,0,2.44,1.41,2.44,4.24s-.42,5.44-1.27,7.64c-.59,3.4-3.41,8.43-8.46,15.1-2.53,2.55-3.79,4.22-3.79,5,0,.26-.03,1.22-.08,2.89,0,.18.03.49.1.92h-.27c.21,0,.63-.77,1.27-2.3,1.37-2.47,3-3.71,4.9-3.71,2.63,0,4.38,2.19,5.23,6.56.64,3.07,1.04,4.61,1.21,4.61.38.21.75.31,1.13.31h.23c2.24,0,4.15-1.89,5.74-5.66.51-.85,1.05-2.45,1.62-4.8.44-.42.83-.62,1.15-.62h.45c.6.38.9.85.9,1.43-.04,1.09-.87,3.41-2.48,6.95-1.98,3.14-3.65,4.71-5,4.71-.09.13-.93.23-2.52.31-2.1,0-3.48-.81-4.16-2.44-.21-.73-.6-2.7-1.17-5.9-.68-1.94-1.41-2.91-2.19-2.91h-.47c-1.02,0-2.32,2.3-3.91,6.89-.62,3.79-1.09,5.68-1.39,5.68-.08.21-.37.31-.88.31h-.08c-1.16,0-1.74-1.43-1.74-4.3-.31-2.83-.47-5.41-.47-7.75,0-4.15.64-8.72,1.91-13.71.43-.69,1.05-2.38,1.88-5.08.66-1.28,1.63-3.41,2.89-6.41.77-1.67,2.29-3.98,4.55-6.95.89-.66,1.73-1,2.54-1ZM3.24,26.39v.18c.03.36-.03.55-.18.55.22,0,1-.9,2.34-2.7,4.38-5.95,6.9-10.77,7.58-14.45.56-1.51.84-3.21.84-5.1-.04-1.31-.09-1.99-.16-2.01h-.06c-.76,0-1.82,1.33-3.18,3.98-.74.98-1.38,2.27-1.91,3.87-.89,1.35-2.21,4.59-3.96,9.71-.61,2.12-1.05,4.11-1.31,5.98Z"/><path class="cls-1" d="m25.59,29.69h.14c.82.17,1.23.59,1.23,1.27v.55c-.66,2.01-1.3,3.28-1.89,3.83-.82,1.47-1.23,2.8-1.23,3.98,0,.56.44.84,1.31.84,2.4,0,5.75-1.94,10.06-5.82.13-.33.53-.67,1.21-1.04.99-.94,2.06-2.06,3.2-3.38h.8c.77.1,1.15.5,1.15,1.19v.16c0,.43-.64,1.29-1.91,2.58-.64.82-1.49,1.6-2.56,2.34-4.79,4.39-8.83,6.58-12.11,6.58-2.51,0-3.77-1.18-3.77-3.54,0-1.02.35-2.51,1.05-4.49,1.59-3.27,2.41-4.9,2.46-4.9,0-.08.29-.13.86-.16Zm5.18-9.22c.66,0,1.06.46,1.19,1.39,0,1.04-.61,1.8-1.82,2.27-.18.13-.61.23-1.27.29-1.15-.23-1.72-.79-1.72-1.66,0-1.04.93-1.77,2.79-2.19.23-.06.51-.1.82-.1Z"/><path class="cls-1" d="m41.11,34.43c.81,0,1.33.53,1.58,1.6,0,.98-.59,1.58-1.78,1.8h-.16c-.87-.16-1.31-.61-1.31-1.35v-.35c.21-1.13.76-1.7,1.66-1.7Zm5.86-19.77c.69,0,1.04.35,1.04,1.04v.16c0,.47-.79,2.97-2.36,7.5-1.3,4.44-2.14,6.66-2.52,6.66l-.53.31c-.79-.47-1.19-.94-1.19-1.43v-.16c0-.38.42-1.73,1.27-4.06,1.52-4.77,2.67-8,3.44-9.71.34-.21.62-.31.86-.31Z"/></g></svg>