<?xml version="1.0" encoding="UTF-8"?><svg id="Warstwa_2" xmlns="http://www.w3.org/2000/svg" viewBox="0 0 26 18"><defs><style>.cls-1{fill:#4f4e4e;}</style></defs><g id="Warstwa_1-2"><g id="mail_email_e-mail_letter"><path class="cls-1" d="M25,6c-.55,0-1,.45-1,1V15c0,.55-.45,1-1,1H3c-.55,0-1-.45-1-1V7c0-.55-.45-1-1-1s-1,.45-1,1V15c0,.8,.32,1.56,.88,2.12,.56,.56,1.32,.88,2.12,.88H23c.8,0,1.56-.32,2.12-.88,.56-.56,.88-1.32,.88-2.12V7c0-.55-.45-1-1-1Z"/><path class="cls-1" d="M12.4,11.8c.36,.27,.84,.27,1.2,0L25.41,2.94c.38-.29,.51-.8,.3-1.23-.15-.31-.35-.59-.59-.83-.56-.56-1.32-.88-2.12-.88H3C2.2,0,1.44,.32,.88,.88c-.24,.24-.44,.52-.59,.83-.21,.43-.08,.94,.3,1.23L12.4,11.8ZM3,2H23c.09-.01,.19-.01,.28,0l-10.28,7.75L2.72,2c.09-.01,.19-.01,.28,0Z"/></g></g></svg>